<?xml version="1.0" encoding="UTF-8" standalone="no"?><svg xmlns="http://www.w3.org/2000/svg" xmlns:xlink="http://www.w3.org/1999/xlink" clip-rule="evenodd" stroke-miterlimit="10" viewBox="0 0 1024 768"><desc>SVG generated by Keynote</desc><defs></defs><g transform="matrix(1.00, 0.00, -0.00, -1.00, 0.0, 768.0)"><path d="M 0.0 768.0 L 1024.0 768.0 L 1024.0 0.0 L 0.0 0.0 Z M 0.0 768.0 " fill="#009192"></path><image xlink:href="../../D4438875-2DBF-44D2-8363-4B6DC0B0B800/assets/C59D8A6DA3D7440AE291FB6EE9544A00.png" width="530.00" height="645.00" transform="matrix(1.00, 0.00, -0.00, -1.00, -2.3, 615.5)" opacity="0.50"></image><path d="M 1.0 614.0 L 525.0 614.0 L 525.0 -24.0 L 1.0 -24.0 Z M 0.7 614.5 " fill="#3CA8A9"></path><image xlink:href="../../D4438875-2DBF-44D2-8363-4B6DC0B0B800/assets/46E96C36596D7538348CEAA0C5BFB9E3.png" width="521.00" height="645.00" transform="matrix(1.00, 0.00, -0.00, -1.00, 523.8, 615.5)" opacity="0.50"></image><path d="M 527.0 614.0 L 1041.0 614.0 L 1041.0 -24.0 L 527.0 -24.0 Z M 526.8 614.5 " fill="#407879"></path><text xml:space="preserve" font-family="Helvetica-Light,Helvetica" font-size="45.0" fill="#FEFFFF" transform="matrix(1.00, 0.00, -0.00, -1.00, 245.6, 676.8)">U</text><text xml:space="preserve" font-family="Helvetica-Light,Helvetica" font-size="45.0" fill="#FEFFFF" transform="matrix(1.00, 0.00, -0.00, -1.00, 278.1, 676.8)">s</text><text xml:space="preserve" font-family="Helvetica-Light,Helvetica" font-size="45.0" fill="#FEFFFF" transform="matrix(1.00, 0.00, -0.00, -1.00, 300.6, 676.8)">e</text><text xml:space="preserve" font-family="Helvetica-Light,Helvetica" font-size="45.0" fill="#FEFFFF" transform="matrix(1.00, 0.00, -0.00, -1.00, 325.6, 676.8)">r</text><text xml:space="preserve" font-family="Helvetica-Light,Helvetica" font-size="45.0" fill="#FEFFFF" transform="matrix(1.00, 0.00, -0.00, -1.00, 340.6, 676.8)">s</text><text xml:space="preserve" font-family="Helvetica-Light,Helvetica" font-size="45.0" fill="#FEFFFF" transform="matrix(1.00, 0.00, -0.00, -1.00, 363.1, 676.8)">’</text><text xml:space="preserve" font-family="Helvetica-Light,Helvetica" font-size="45.0" fill="#FEFFFF" transform="matrix(1.00, 0.00, -0.00, -1.00, 373.1, 676.8)"> </text><text xml:space="preserve" font-family="Helvetica-Light,Helvetica" font-size="45.0" fill="#FEFFFF" transform="matrix(1.00, 0.00, -0.00, -1.00, 385.6, 676.8)">f</text><text xml:space="preserve" font-family="Helvetica-Light,Helvetica" font-size="45.0" fill="#FEFFFF" transform="matrix(1.00, 0.00, -0.00, -1.00, 398.1, 676.8)">e</text><text xml:space="preserve" font-family="Helvetica-Light,Helvetica" font-size="45.0" fill="#FEFFFF" transform="matrix(1.00, 0.00, -0.00, -1.00, 423.1, 676.8)">a</text><text xml:space="preserve" font-family="Helvetica-Light,Helvetica" font-size="45.0" fill="#FEFFFF" transform="matrix(1.00, 0.00, -0.00, -1.00, 448.2, 676.8)">t</text><text xml:space="preserve" font-family="Helvetica-Light,Helvetica" font-size="45.0" fill="#FEFFFF" transform="matrix(1.00, 0.00, -0.00, -1.00, 460.7, 676.8)">u</text><text xml:space="preserve" font-family="Helvetica-Light,Helvetica" font-size="45.0" fill="#FEFFFF" transform="matrix(1.00, 0.00, -0.00, -1.00, 485.7, 676.8)">r</text><text xml:space="preserve" font-family="Helvetica-Light,Helvetica" font-size="45.0" fill="#FEFFFF" transform="matrix(1.00, 0.00, -0.00, -1.00, 499.9, 676.8)">e</text><text xml:space="preserve" font-family="Helvetica-Light,Helvetica" font-size="45.0" fill="#FEFFFF" transform="matrix(1.00, 0.00, -0.00, -1.00, 524.9, 676.8)"> </text><text xml:space="preserve" font-family="Helvetica-Light,Helvetica" font-size="45.0" fill="#FEFFFF" transform="matrix(1.00, 0.00, -0.00, -1.00, 537.4, 676.8)">p</text><text xml:space="preserve" font-family="Helvetica-Light,Helvetica" font-size="45.0" fill="#FEFFFF" transform="matrix(1.00, 0.00, -0.00, -1.00, 564.9, 676.8)">r</text><text xml:space="preserve" font-family="Helvetica-Light,Helvetica" font-size="45.0" fill="#FEFFFF" transform="matrix(1.00, 0.00, -0.00, -1.00, 579.1, 676.8)">e</text><text xml:space="preserve" font-family="Helvetica-Light,Helvetica" font-size="45.0" fill="#FEFFFF" transform="matrix(1.00, 0.00, -0.00, -1.00, 604.1, 676.8)">f</text><text xml:space="preserve" font-family="Helvetica-Light,Helvetica" font-size="45.0" fill="#FEFFFF" transform="matrix(1.00, 0.00, -0.00, -1.00, 616.6, 676.8)">e</text><text xml:space="preserve" font-family="Helvetica-Light,Helvetica" font-size="45.0" fill="#FEFFFF" transform="matrix(1.00, 0.00, -0.00, -1.00, 641.6, 676.8)">r</text><text xml:space="preserve" font-family="Helvetica-Light,Helvetica" font-size="45.0" fill="#FEFFFF" transform="matrix(1.00, 0.00, -0.00, -1.00, 655.8, 676.8)">e</text><text xml:space="preserve" font-family="Helvetica-Light,Helvetica" font-size="45.0" fill="#FEFFFF" transform="matrix(1.00, 0.00, -0.00, -1.00, 680.8, 676.8)">n</text><text xml:space="preserve" font-family="Helvetica-Light,Helvetica" font-size="45.0" fill="#FEFFFF" transform="matrix(1.00, 0.00, -0.00, -1.00, 705.8, 676.8)">c</text><text xml:space="preserve" font-family="Helvetica-Light,Helvetica" font-size="45.0" fill="#FEFFFF" transform="matrix(1.00, 0.00, -0.00, -1.00, 730.9, 676.8)">e</text><text xml:space="preserve" font-family="Helvetica-Light,Helvetica" font-size="45.0" fill="#FEFFFF" transform="matrix(1.00, 0.00, -0.00, -1.00, 755.9, 676.8)">s</text><text xml:space="preserve" font-family="Helvetica-Bold,Helvetica" font-weight="bold" font-size="45.0" fill="#FEFFFF" transform="matrix(1.00, 0.00, -0.00, -1.00, 205.5, 519.5)">L</text><text xml:space="preserve" font-family="Helvetica-Bold,Helvetica" font-weight="bold" font-size="45.0" fill="#FEFFFF" transform="matrix(1.00, 0.00, -0.00, -1.00, 232.9, 519.5)">i</text><text xml:space="preserve" font-family="Helvetica-Bold,Helvetica" font-weight="bold" font-size="45.0" fill="#FEFFFF" transform="matrix(1.00, 0.00, -0.00, -1.00, 245.4, 519.5)">k</text><text xml:space="preserve" font-family="Helvetica-Bold,Helvetica" font-weight="bold" font-size="45.0" fill="#FEFFFF" transform="matrix(1.00, 0.00, -0.00, -1.00, 270.5, 519.5)">e</text><text xml:space="preserve" font-family="Helvetica-Bold,Helvetica" font-weight="bold" font-size="45.0" fill="#FEFFFF" transform="matrix(1.00, 0.00, -0.00, -1.00, 295.5, 519.5)">s</text><text xml:space="preserve" font-family="Helvetica-Light,Helvetica" font-size="45.0" fill="#FEFFFF" transform="matrix(1.00, 0.00, -0.00, -1.00, 205.5, 411.5)">h</text><text xml:space="preserve" font-family="Helvetica-Light,Helvetica" font-size="45.0" fill="#FEFFFF" transform="matrix(1.00, 0.00, -0.00, -1.00, 230.5, 411.5)">u</text><text xml:space="preserve" font-family="Helvetica-Light,Helvetica" font-size="45.0" fill="#FEFFFF" transform="matrix(1.00, 0.00, -0.00, -1.00, 255.5, 411.5)">g</text><text xml:space="preserve" font-family="Helvetica-Light,Helvetica" font-size="45.0" fill="#FEFFFF" transform="matrix(1.00, 0.00, -0.00, -1.00, 283.0, 411.5)">!</text><text xml:space="preserve" font-family="Helvetica-Light,Helvetica" font-size="45.0" fill="#FEFFFF" transform="matrix(1.00, 0.00, -0.00, -1.00, 298.0, 411.5)"> </text><text xml:space="preserve" font-family="Helvetica-Light,Helvetica" font-size="45.0" fill="#FEFFFF" transform="matrix(1.00, 0.00, -0.00, -1.00, 205.5, 330.5)">g</text><text xml:space="preserve" font-family="Helvetica-Light,Helvetica" font-size="45.0" fill="#FEFFFF" transform="matrix(1.00, 0.00, -0.00, -1.00, 233.0, 330.5)">a</text><text xml:space="preserve" font-family="Helvetica-Light,Helvetica" font-size="45.0" fill="#FEFFFF" transform="matrix(1.00, 0.00, -0.00, -1.00, 258.0, 330.5)">m</text><text xml:space="preserve" font-family="Helvetica-Light,Helvetica" font-size="45.0" fill="#FEFFFF" transform="matrix(1.00, 0.00, -0.00, -1.00, 295.5, 330.5)">e</text><text xml:space="preserve" font-family="Helvetica-Light,Helvetica" font-size="45.0" fill="#FEFFFF" transform="matrix(1.00, 0.00, -0.00, -1.00, 320.5, 330.5)">s</text><text xml:space="preserve" font-family="Helvetica-Light,Helvetica" font-size="45.0" fill="#FEFFFF" transform="matrix(1.00, 0.00, -0.00, -1.00, 343.0, 330.5)"> </text><text xml:space="preserve" font-family="Helvetica-Light,Helvetica" font-size="45.0" fill="#FEFFFF" transform="matrix(1.00, 0.00, -0.00, -1.00, 205.5, 249.5)">c</text><text xml:space="preserve" font-family="Helvetica-Light,Helvetica" font-size="45.0" fill="#FEFFFF" transform="matrix(1.00, 0.00, -0.00, -1.00, 230.5, 249.5)">a</text><text xml:space="preserve" font-family="Helvetica-Light,Helvetica" font-size="45.0" fill="#FEFFFF" transform="matrix(1.00, 0.00, -0.00, -1.00, 255.5, 249.5)">l</text><text xml:space="preserve" font-family="Helvetica-Light,Helvetica" font-size="45.0" fill="#FEFFFF" transform="matrix(1.00, 0.00, -0.00, -1.00, 265.5, 249.5)">l</text><text xml:space="preserve" font-family="Helvetica-Light,Helvetica" font-size="45.0" fill="#FEFFFF" transform="matrix(1.00, 0.00, -0.00, -1.00, 275.5, 249.5)"> </text><text xml:space="preserve" font-family="Helvetica-Light,Helvetica" font-size="45.0" fill="#FEFFFF" transform="matrix(1.00, 0.00, -0.00, -1.00, 288.0, 249.5)">a</text><text xml:space="preserve" font-family="Helvetica-Light,Helvetica" font-size="45.0" fill="#FEFFFF" transform="matrix(1.00, 0.00, -0.00, -1.00, 313.0, 249.5)">v</text><text xml:space="preserve" font-family="Helvetica-Light,Helvetica" font-size="45.0" fill="#FEFFFF" transform="matrix(1.00, 0.00, -0.00, -1.00, 335.5, 249.5)">a</text><text xml:space="preserve" font-family="Helvetica-Light,Helvetica" font-size="45.0" fill="#FEFFFF" transform="matrix(1.00, 0.00, -0.00, -1.00, 360.5, 249.5)">i</text><text xml:space="preserve" font-family="Helvetica-Light,Helvetica" font-size="45.0" fill="#FEFFFF" transform="matrix(1.00, 0.00, -0.00, -1.00, 370.5, 249.5)">l</text><text xml:space="preserve" font-family="Helvetica-Light,Helvetica" font-size="45.0" fill="#FEFFFF" transform="matrix(1.00, 0.00, -0.00, -1.00, 380.5, 249.5)"> </text><text xml:space="preserve" font-family="Helvetica-Light,Helvetica" font-size="45.0" fill="#FEFFFF" transform="matrix(1.00, 0.00, -0.00, -1.00, 205.5, 168.5)">m</text><text xml:space="preserve" font-family="Helvetica-Light,Helvetica" font-size="45.0" fill="#FEFFFF" transform="matrix(1.00, 0.00, -0.00, -1.00, 242.9, 168.5)">o</text><text xml:space="preserve" font-family="Helvetica-Light,Helvetica" font-size="45.0" fill="#FEFFFF" transform="matrix(1.00, 0.00, -0.00, -1.00, 268.0, 168.5)">o</text><text xml:space="preserve" font-family="Helvetica-Light,Helvetica" font-size="45.0" fill="#FEFFFF" transform="matrix(1.00, 0.00, -0.00, -1.00, 293.0, 168.5)">d</text><text xml:space="preserve" font-family="Helvetica-Light,Helvetica" font-size="45.0" fill="#FEFFFF" transform="matrix(1.00, 0.00, -0.00, -1.00, 320.5, 168.5)">s</text><text xml:space="preserve" font-family="Helvetica-Light,Helvetica" font-size="45.0" fill="#FEFFFF" transform="matrix(1.00, 0.00, -0.00, -1.00, 343.0, 168.5)">,</text><text xml:space="preserve" font-family="Helvetica-Light,Helvetica" font-size="45.0" fill="#FEFFFF" transform="matrix(1.00, 0.00, -0.00, -1.00, 355.5, 168.5)"> </text><text xml:space="preserve" font-family="Helvetica-Light,Helvetica" font-size="45.0" fill="#FEFFFF" transform="matrix(1.00, 0.00, -0.00, -1.00, 368.0, 168.5)">s</text><text xml:space="preserve" font-family="Helvetica-Light,Helvetica" font-size="45.0" fill="#FEFFFF" transform="matrix(1.00, 0.00, -0.00, -1.00, 390.5, 168.5)">t</text><text xml:space="preserve" font-family="Helvetica-Light,Helvetica" font-size="45.0" fill="#FEFFFF" transform="matrix(1.00, 0.00, -0.00, -1.00, 403.0, 168.5)">a</text><text xml:space="preserve" font-family="Helvetica-Light,Helvetica" font-size="45.0" fill="#FEFFFF" transform="matrix(1.00, 0.00, -0.00, -1.00, 428.0, 168.5)">t</text><text xml:space="preserve" font-family="Helvetica-Light,Helvetica" font-size="45.0" fill="#FEFFFF" transform="matrix(1.00, 0.00, -0.00, -1.00, 440.5, 168.5)">u</text><text xml:space="preserve" font-family="Helvetica-Light,Helvetica" font-size="45.0" fill="#FEFFFF" transform="matrix(1.00, 0.00, -0.00, -1.00, 465.6, 168.5)">s</text><text xml:space="preserve" font-family="Helvetica-Light,Helvetica" font-size="45.0" fill="#FEFFFF" transform="matrix(1.00, 0.00, -0.00, -1.00, 488.1, 168.5)">,</text><text xml:space="preserve" font-family="Helvetica-Light,Helvetica" font-size="45.0" fill="#FEFFFF" transform="matrix(1.00, 0.00, -0.00, -1.00, 500.6, 168.5)"> </text><text xml:space="preserve" font-family="Helvetica-Light,Helvetica" font-size="45.0" fill="#FEFFFF" transform="matrix(1.00, 0.00, -0.00, -1.00, 205.5, 87.5)">t</text><text xml:space="preserve" font-family="Helvetica-Light,Helvetica" font-size="45.0" fill="#FEFFFF" transform="matrix(1.00, 0.00, -0.00, -1.00, 218.0, 87.5)">h</text><text xml:space="preserve" font-family="Helvetica-Light,Helvetica" font-size="45.0" fill="#FEFFFF" transform="matrix(1.00, 0.00, -0.00, -1.00, 243.0, 87.5)">o</text><text xml:space="preserve" font-family="Helvetica-Light,Helvetica" font-size="45.0" fill="#FEFFFF" transform="matrix(1.00, 0.00, -0.00, -1.00, 268.0, 87.5)">u</text><text xml:space="preserve" font-family="Helvetica-Light,Helvetica" font-size="45.0" fill="#FEFFFF" transform="matrix(1.00, 0.00, -0.00, -1.00, 293.0, 87.5)">g</text><text xml:space="preserve" font-family="Helvetica-Light,Helvetica" font-size="45.0" fill="#FEFFFF" transform="matrix(1.00, 0.00, -0.00, -1.00, 320.5, 87.5)">h</text><text xml:space="preserve" font-family="Helvetica-Light,Helvetica" font-size="45.0" fill="#FEFFFF" transform="matrix(1.00, 0.00, -0.00, -1.00, 345.5, 87.5)">t</text><text xml:space="preserve" font-family="Helvetica-Light,Helvetica" font-size="45.0" fill="#FEFFFF" transform="matrix(1.00, 0.00, -0.00, -1.00, 358.1, 87.5)">s</text><text xml:space="preserve" font-family="Helvetica-Light,Helvetica" font-size="45.0" fill="#FEFFFF" transform="matrix(1.00, 0.00, -0.00, -1.00, 380.6, 87.5)"> </text><text xml:space="preserve" font-family="Helvetica-Bold,Helvetica" font-weight="bold" font-size="45.0" fill="#FEFFFF" transform="matrix(1.00, 0.00, -0.00, -1.00, 713.6, 515.9)">D</text><text xml:space="preserve" font-family="Helvetica-Bold,Helvetica" font-weight="bold" font-size="45.0" fill="#FEFFFF" transform="matrix(1.00, 0.00, -0.00, -1.00, 746.1, 515.9)">i</text><text xml:space="preserve" font-family="Helvetica-Bold,Helvetica" font-weight="bold" font-size="45.0" fill="#FEFFFF" transform="matrix(1.00, 0.00, -0.00, -1.00, 758.6, 515.9)">s</text><text xml:space="preserve" font-family="Helvetica-Bold,Helvetica" font-weight="bold" font-size="45.0" fill="#FEFFFF" transform="matrix(1.00, 0.00, -0.00, -1.00, 783.7, 515.9)">l</text><text xml:space="preserve" font-family="Helvetica-Bold,Helvetica" font-weight="bold" font-size="45.0" fill="#FEFFFF" transform="matrix(1.00, 0.00, -0.00, -1.00, 796.2, 515.9)">i</text><text xml:space="preserve" font-family="Helvetica-Bold,Helvetica" font-weight="bold" font-size="45.0" fill="#FEFFFF" transform="matrix(1.00, 0.00, -0.00, -1.00, 808.7, 515.9)">k</text><text xml:space="preserve" font-family="Helvetica-Bold,Helvetica" font-weight="bold" font-size="45.0" fill="#FEFFFF" transform="matrix(1.00, 0.00, -0.00, -1.00, 833.7, 515.9)">e</text><text xml:space="preserve" font-family="Helvetica-Bold,Helvetica" font-weight="bold" font-size="45.0" fill="#FEFFFF" transform="matrix(1.00, 0.00, -0.00, -1.00, 858.8, 515.9)">s</text><text xml:space="preserve" font-family="Helvetica-Light,Helvetica" font-size="45.0" fill="#FEFFFF" transform="matrix(1.00, 0.00, -0.00, -1.00, 713.6, 407.9)">g</text><text xml:space="preserve" font-family="Helvetica-Light,Helvetica" font-size="45.0" fill="#FEFFFF" transform="matrix(1.00, 0.00, -0.00, -1.00, 741.1, 407.9)">i</text><text xml:space="preserve" font-family="Helvetica-Light,Helvetica" font-size="45.0" fill="#FEFFFF" transform="matrix(1.00, 0.00, -0.00, -1.00, 751.1, 407.9)">f</text><text xml:space="preserve" font-family="Helvetica-Light,Helvetica" font-size="45.0" fill="#FEFFFF" transform="matrix(1.00, 0.00, -0.00, -1.00, 763.6, 407.9)">t</text><text xml:space="preserve" font-family="Helvetica-Light,Helvetica" font-size="45.0" fill="#FEFFFF" transform="matrix(1.00, 0.00, -0.00, -1.00, 776.1, 407.9)">s</text><text xml:space="preserve" font-family="Helvetica-Light,Helvetica" font-size="45.0" fill="#FEFFFF" transform="matrix(1.00, 0.00, -0.00, -1.00, 798.6, 407.9)"> </text><text xml:space="preserve" font-family="Helvetica-Light,Helvetica" font-size="45.0" fill="#FEFFFF" transform="matrix(1.00, 0.00, -0.00, -1.00, 713.6, 326.9)">w</text><text xml:space="preserve" font-family="Helvetica-Light,Helvetica" font-size="45.0" fill="#FEFFFF" transform="matrix(1.00, 0.00, -0.00, -1.00, 746.1, 326.9)">o</text><text xml:space="preserve" font-family="Helvetica-Light,Helvetica" font-size="45.0" fill="#FEFFFF" transform="matrix(1.00, 0.00, -0.00, -1.00, 771.1, 326.9)">r</text><text xml:space="preserve" font-family="Helvetica-Light,Helvetica" font-size="45.0" fill="#FEFFFF" transform="matrix(1.00, 0.00, -0.00, -1.00, 786.1, 326.9)">k</text><text xml:space="preserve" font-family="Helvetica-Light,Helvetica" font-size="45.0" fill="#FEFFFF" transform="matrix(1.00, 0.00, -0.00, -1.00, 808.6, 326.9)"> </text><text xml:space="preserve" font-family="Helvetica-Light,Helvetica" font-size="45.0" fill="#FEFFFF" transform="matrix(1.00, 0.00, -0.00, -1.00, 821.1, 326.9)">c</text><text xml:space="preserve" font-family="Helvetica-Light,Helvetica" font-size="45.0" fill="#FEFFFF" transform="matrix(1.00, 0.00, -0.00, -1.00, 846.2, 326.9)">o</text><text xml:space="preserve" font-family="Helvetica-Light,Helvetica" font-size="45.0" fill="#FEFFFF" transform="matrix(1.00, 0.00, -0.00, -1.00, 871.2, 326.9)">s</text><text xml:space="preserve" font-family="Helvetica-Light,Helvetica" font-size="45.0" fill="#FEFFFF" transform="matrix(1.00, 0.00, -0.00, -1.00, 893.7, 326.9)">t</text><text xml:space="preserve" font-family="Helvetica-Light,Helvetica" font-size="45.0" fill="#FEFFFF" transform="matrix(1.00, 0.00, -0.00, -1.00, 906.2, 326.9)">u</text><text xml:space="preserve" font-family="Helvetica-Light,Helvetica" font-size="45.0" fill="#FEFFFF" transform="matrix(1.00, 0.00, -0.00, -1.00, 931.2, 326.9)">m</text><text xml:space="preserve" font-family="Helvetica-Light,Helvetica" font-size="45.0" fill="#FEFFFF" transform="matrix(1.00, 0.00, -0.00, -1.00, 968.7, 326.9)">e</text><text xml:space="preserve" font-family="Helvetica-Light,Helvetica" font-size="45.0" fill="#FEFFFF" transform="matrix(1.00, 0.00, -0.00, -1.00, 993.7, 326.9)"> </text><text xml:space="preserve" font-family="Helvetica-Light,Helvetica" font-size="45.0" fill="#FEFFFF" transform="matrix(1.00, 0.00, -0.00, -1.00, 713.6, 245.9)">c</text><text xml:space="preserve" font-family="Helvetica-Light,Helvetica" font-size="45.0" fill="#FEFFFF" transform="matrix(1.00, 0.00, -0.00, -1.00, 738.6, 245.9)">a</text><text xml:space="preserve" font-family="Helvetica-Light,Helvetica" font-size="45.0" fill="#FEFFFF" transform="matrix(1.00, 0.00, -0.00, -1.00, 763.7, 245.9)">l</text><text xml:space="preserve" font-family="Helvetica-Light,Helvetica" font-size="45.0" fill="#FEFFFF" transform="matrix(1.00, 0.00, -0.00, -1.00, 773.7, 245.9)">l</text><text xml:space="preserve" font-family="Helvetica-Light,Helvetica" font-size="45.0" fill="#FEFFFF" transform="matrix(1.00, 0.00, -0.00, -1.00, 783.6, 245.9)"> </text><text xml:space="preserve" font-family="Helvetica-Light,Helvetica" font-size="45.0" fill="#FEFFFF" transform="matrix(1.00, 0.00, -0.00, -1.00, 796.2, 245.9)">a</text><text xml:space="preserve" font-family="Helvetica-Light,Helvetica" font-size="45.0" fill="#FEFFFF" transform="matrix(1.00, 0.00, -0.00, -1.00, 821.2, 245.9)">v</text><text xml:space="preserve" font-family="Helvetica-Light,Helvetica" font-size="45.0" fill="#FEFFFF" transform="matrix(1.00, 0.00, -0.00, -1.00, 843.7, 245.9)">a</text><text xml:space="preserve" font-family="Helvetica-Light,Helvetica" font-size="45.0" fill="#FEFFFF" transform="matrix(1.00, 0.00, -0.00, -1.00, 868.7, 245.9)">i</text><text xml:space="preserve" font-family="Helvetica-Light,Helvetica" font-size="45.0" fill="#FEFFFF" transform="matrix(1.00, 0.00, -0.00, -1.00, 878.7, 245.9)">l</text><text xml:space="preserve" font-family="Helvetica-Light,Helvetica" font-size="45.0" fill="#FEFFFF" transform="matrix(1.00, 0.00, -0.00, -1.00, 888.7, 245.9)">a</text><text xml:space="preserve" font-family="Helvetica-Light,Helvetica" font-size="45.0" fill="#FEFFFF" transform="matrix(1.00, 0.00, -0.00, -1.00, 913.7, 245.9)">b</text><text xml:space="preserve" font-family="Helvetica-Light,Helvetica" font-size="45.0" fill="#FEFFFF" transform="matrix(1.00, 0.00, -0.00, -1.00, 941.2, 245.9)">i</text><text xml:space="preserve" font-family="Helvetica-Light,Helvetica" font-size="45.0" fill="#FEFFFF" transform="matrix(1.00, 0.00, -0.00, -1.00, 951.2, 245.9)">l</text><text xml:space="preserve" font-family="Helvetica-Light,Helvetica" font-size="45.0" fill="#FEFFFF" transform="matrix(1.00, 0.00, -0.00, -1.00, 961.2, 245.9)">i</text><text xml:space="preserve" font-family="Helvetica-Light,Helvetica" font-size="45.0" fill="#FEFFFF" transform="matrix(1.00, 0.00, -0.00, -1.00, 971.2, 245.9)">t</text><text xml:space="preserve" font-family="Helvetica-Light,Helvetica" font-size="45.0" fill="#FEFFFF" transform="matrix(1.00, 0.00, -0.00, -1.00, 983.7, 245.9)">y</text><text xml:space="preserve" font-family="Helvetica-Light,Helvetica" font-size="45.0" fill="#FEFFFF" transform="matrix(1.00, 0.00, -0.00, -1.00, 1006.2, 245.9)"> </text><text xml:space="preserve" font-family="Helvetica-Light,Helvetica" font-size="45.0" fill="#FEFFFF" transform="matrix(1.00, 0.00, -0.00, -1.00, 713.6, 164.9)">n</text><text xml:space="preserve" font-family="Helvetica-Light,Helvetica" font-size="45.0" fill="#FEFFFF" transform="matrix(1.00, 0.00, -0.00, -1.00, 738.6, 164.9)">o</text><text xml:space="preserve" font-family="Helvetica-Light,Helvetica" font-size="45.0" fill="#FEFFFF" transform="matrix(1.00, 0.00, -0.00, -1.00, 763.7, 164.9)"> </text><text xml:space="preserve" font-family="Helvetica-Light,Helvetica" font-size="45.0" fill="#FEFFFF" transform="matrix(1.00, 0.00, -0.00, -1.00, 776.2, 164.9)">i</text><text xml:space="preserve" font-family="Helvetica-Light,Helvetica" font-size="45.0" fill="#FEFFFF" transform="matrix(1.00, 0.00, -0.00, -1.00, 786.2, 164.9)">n</text><text xml:space="preserve" font-family="Helvetica-Light,Helvetica" font-size="45.0" fill="#FEFFFF" transform="matrix(1.00, 0.00, -0.00, -1.00, 811.2, 164.9)">s</text><text xml:space="preserve" font-family="Helvetica-Light,Helvetica" font-size="45.0" fill="#FEFFFF" transform="matrix(1.00, 0.00, -0.00, -1.00, 833.7, 164.9)">t</text><text xml:space="preserve" font-family="Helvetica-Light,Helvetica" font-size="45.0" fill="#FEFFFF" transform="matrix(1.00, 0.00, -0.00, -1.00, 846.2, 164.9)">r</text><text xml:space="preserve" font-family="Helvetica-Light,Helvetica" font-size="45.0" fill="#FEFFFF" transform="matrix(1.00, 0.00, -0.00, -1.00, 861.2, 164.9)">u</text><text xml:space="preserve" font-family="Helvetica-Light,Helvetica" font-size="45.0" fill="#FEFFFF" transform="matrix(1.00, 0.00, -0.00, -1.00, 886.2, 164.9)">c</text><text xml:space="preserve" font-family="Helvetica-Light,Helvetica" font-size="45.0" fill="#FEFFFF" transform="matrix(1.00, 0.00, -0.00, -1.00, 911.2, 164.9)">t</text><text xml:space="preserve" font-family="Helvetica-Light,Helvetica" font-size="45.0" fill="#FEFFFF" transform="matrix(1.00, 0.00, -0.00, -1.00, 923.7, 164.9)">i</text><text xml:space="preserve" font-family="Helvetica-Light,Helvetica" font-size="45.0" fill="#FEFFFF" transform="matrix(1.00, 0.00, -0.00, -1.00, 933.7, 164.9)">o</text><text xml:space="preserve" font-family="Helvetica-Light,Helvetica" font-size="45.0" fill="#FEFFFF" transform="matrix(1.00, 0.00, -0.00, -1.00, 958.7, 164.9)">n</text><text xml:space="preserve" font-family="Helvetica-Light,Helvetica" font-size="45.0" fill="#FEFFFF" transform="matrix(1.00, 0.00, -0.00, -1.00, 983.8, 164.9)">s</text><text xml:space="preserve" font-family="Helvetica-Light,Helvetica" font-size="45.0" fill="#FEFFFF" transform="matrix(1.00, 0.00, -0.00, -1.00, 1006.3, 164.9)"> </text><text xml:space="preserve" font-family="Helvetica-Light,Helvetica" font-size="45.0" fill="#FEFFFF" transform="matrix(1.00, 0.00, -0.00, -1.00, 713.6, 83.9)">r</text><text xml:space="preserve" font-family="Helvetica-Light,Helvetica" font-size="45.0" fill="#FEFFFF" transform="matrix(1.00, 0.00, -0.00, -1.00, 728.6, 83.9)">a</text><text xml:space="preserve" font-family="Helvetica-Light,Helvetica" font-size="45.0" fill="#FEFFFF" transform="matrix(1.00, 0.00, -0.00, -1.00, 753.6, 83.9)">n</text><text xml:space="preserve" font-family="Helvetica-Light,Helvetica" font-size="45.0" fill="#FEFFFF" transform="matrix(1.00, 0.00, -0.00, -1.00, 778.7, 83.9)">d</text><text xml:space="preserve" font-family="Helvetica-Light,Helvetica" font-size="45.0" fill="#FEFFFF" transform="matrix(1.00, 0.00, -0.00, -1.00, 806.1, 83.9)">o</text><text xml:space="preserve" font-family="Helvetica-Light,Helvetica" font-size="45.0" fill="#FEFFFF" transform="matrix(1.00, 0.00, -0.00, -1.00, 831.2, 83.9)">m</text><text xml:space="preserve" font-family="Helvetica-Light,Helvetica" font-size="45.0" fill="#FEFFFF" transform="matrix(1.00, 0.00, -0.00, -1.00, 868.7, 83.9)"> </text><text xml:space="preserve" font-family="Helvetica-Light,Helvetica" font-size="45.0" fill="#FEFFFF" transform="matrix(1.00, 0.00, -0.00, -1.00, 881.2, 83.9)">g</text><text xml:space="preserve" font-family="Helvetica-Light,Helvetica" font-size="45.0" fill="#FEFFFF" transform="matrix(1.00, 0.00, -0.00, -1.00, 908.7, 83.9)">a</text><text xml:space="preserve" font-family="Helvetica-Light,Helvetica" font-size="45.0" fill="#FEFFFF" transform="matrix(1.00, 0.00, -0.00, -1.00, 933.7, 83.9)">m</text><text xml:space="preserve" font-family="Helvetica-Light,Helvetica" font-size="45.0" fill="#FEFFFF" transform="matrix(1.00, 0.00, -0.00, -1.00, 971.2, 83.9)">e</text><image xlink:href="../../D4438875-2DBF-44D2-8363-4B6DC0B0B800/assets/28EB48940078CD38F45A84CAC0D1CB06.png" width="194.00" height="66.00" transform="matrix(0.66, 0.00, -0.00, -0.66, 37.2, 99.6)"></image><image xlink:href="../../D4438875-2DBF-44D2-8363-4B6DC0B0B800/assets/7A290ACF23C069042D39FA8C58051F9D.png" width="100.00" height="100.00" transform="matrix(0.75, 0.00, -0.00, -0.75, 63.8, 464.3)"></image><image xlink:href="../../D4438875-2DBF-44D2-8363-4B6DC0B0B800/assets/A4CAD1C0AE96F4953787DC33A6B1C9ED.png" width="200.00" height="200.00" transform="matrix(0.31, 0.00, -0.00, -0.31, 70.3, 207.7)"></image><image xlink:href="../../D4438875-2DBF-44D2-8363-4B6DC0B0B800/assets/800E5904F12D662827B8BECD872CF55F.png" width="100.00" height="100.00" transform="matrix(0.62, 0.00, -0.00, -0.62, 618.0, 457.7)"></image><image xlink:href="../../D4438875-2DBF-44D2-8363-4B6DC0B0B800/assets/087B26F7E604896101B25C67370A2785.png" width="110.00" height="183.00" transform="matrix(0.34, 0.00, -0.00, -0.34, 82.8, 293.1)"></image><image xlink:href="../../D4438875-2DBF-44D2-8363-4B6DC0B0B800/assets/8EAF47A928B14E3AB7D61616AA9DBBBF.png" width="110.00" height="60.00" transform="matrix(0.82, 0.00, -0.00, -0.82, 56.1, 365.9)"></image><image xlink:href="../../D4438875-2DBF-44D2-8363-4B6DC0B0B800/assets/087B26F7E604896101B25C67370A2785.png" width="110.00" height="183.00" transform="matrix(0.34, 0.00, -0.00, -0.34, 630.4, 293.0)"></image><image xlink:href="../../D4438875-2DBF-44D2-8363-4B6DC0B0B800/assets/12B2179FA567507E89438B1B9FAEA346.png" width="200.00" height="360.00" transform="matrix(0.23, 0.00, -0.00, -0.23, 625.7, 383.2)"></image><text xml:space="preserve" font-family="Helvetica-Bold,Helvetica" font-weight="bold" font-size="62.0" fill="#FEFFFF" transform="matrix(1.00, 0.00, -0.00, -1.00, 632.3, 153.8)">?</text><image xlink:href="../../D4438875-2DBF-44D2-8363-4B6DC0B0B800/assets/4DDC2F8868F3700234A6131320A39013.png" width="1600.00" height="815.00" transform="matrix(0.11, 0.00, -0.00, -0.11, 564.3, 128.4)"></image></g></svg>