<?xml version="1.0" encoding="UTF-8" standalone="no"?><svg xmlns="http://www.w3.org/2000/svg" xmlns:xlink="http://www.w3.org/1999/xlink" clip-rule="evenodd" stroke-miterlimit="10" viewBox="0 0 1024 768"><desc>SVG generated by Keynote</desc><defs></defs><g transform="matrix(1.00, 0.00, -0.00, -1.00, 0.0, 768.0)"><path d="M 0.0 768.0 L 1024.0 768.0 L 1024.0 0.0 L 0.0 0.0 Z M 0.0 768.0 " fill="#009192"></path><image xlink:href="B1B8122D2762FE2F74B096B3DA3052C0.jpeg" width="2048.00" height="1536.00" transform="matrix(0.50, 0.00, -0.00, -0.50, -0.3, 768.0)"></image><g opacity="0.65"><g><clipPath id="clip0x6080048b3f80"><path d="M 0.0 0.0 L 1024.0 0.0 L 1024.0 768.0 L 0.0 768.0 Z M 0.0 0.0 "></path></clipPath><g clip-path="url(#clip0x6080048b3f80)"><image xlink:href="39CD0CAF22BDA4BEAB1F524DFD0E7D02.png" width="1094.00" height="783.00" transform="matrix(1.00, 0.00, -0.00, -1.00, -35.5, 775.6)" opacity="0.02"></image><path d="M -33.0 773.0 L 1056.0 773.0 L 1056.0 -5.0 L -33.0 -5.0 Z M -32.5 772.6 " fill="#424242"></path></g></g></g><text xml:space="preserve" font-family="Helvetica-Light,Helvetica" font-size="45.0" fill="#FEFFFF" transform="matrix(1.00, 0.00, -0.00, -1.00, 243.1, 703.8)">P</text><text xml:space="preserve" font-family="Helvetica-Light,Helvetica" font-size="45.0" fill="#FEFFFF" transform="matrix(1.00, 0.00, -0.00, -1.00, 270.6, 703.8)">o</text><text xml:space="preserve" font-family="Helvetica-Light,Helvetica" font-size="45.0" fill="#FEFFFF" transform="matrix(1.00, 0.00, -0.00, -1.00, 295.7, 703.8)">c</text><text xml:space="preserve" font-family="Helvetica-Light,Helvetica" font-size="45.0" fill="#FEFFFF" transform="matrix(1.00, 0.00, -0.00, -1.00, 320.7, 703.8)">k</text><text xml:space="preserve" font-family="Helvetica-Light,Helvetica" font-size="45.0" fill="#FEFFFF" transform="matrix(1.00, 0.00, -0.00, -1.00, 343.2, 703.8)">e</text><text xml:space="preserve" font-family="Helvetica-Light,Helvetica" font-size="45.0" fill="#FEFFFF" transform="matrix(1.00, 0.00, -0.00, -1.00, 368.2, 703.8)">t</text><text xml:space="preserve" font-family="Helvetica-Light,Helvetica" font-size="45.0" fill="#FEFFFF" transform="matrix(1.00, 0.00, -0.00, -1.00, 380.7, 703.8)"> </text><text xml:space="preserve" font-family="Helvetica-Light,Helvetica" font-size="45.0" fill="#FEFFFF" transform="matrix(1.00, 0.00, -0.00, -1.00, 393.2, 703.8)">l</text><text xml:space="preserve" font-family="Helvetica-Light,Helvetica" font-size="45.0" fill="#FEFFFF" transform="matrix(1.00, 0.00, -0.00, -1.00, 403.2, 703.8)">o</text><text xml:space="preserve" font-family="Helvetica-Light,Helvetica" font-size="45.0" fill="#FEFFFF" transform="matrix(1.00, 0.00, -0.00, -1.00, 428.2, 703.8)">v</text><text xml:space="preserve" font-family="Helvetica-Light,Helvetica" font-size="45.0" fill="#FEFFFF" transform="matrix(1.00, 0.00, -0.00, -1.00, 450.7, 703.8)">e</text><text xml:space="preserve" font-family="Helvetica-Light,Helvetica" font-size="45.0" fill="#FEFFFF" transform="matrix(1.00, 0.00, -0.00, -1.00, 475.8, 703.8)"> </text><text xml:space="preserve" font-family="Helvetica-Light,Helvetica" font-size="45.0" fill="#FEFFFF" transform="matrix(1.00, 0.00, -0.00, -1.00, 488.3, 703.8)">m</text><text xml:space="preserve" font-family="Helvetica-Light,Helvetica" font-size="45.0" fill="#FEFFFF" transform="matrix(1.00, 0.00, -0.00, -1.00, 525.7, 703.8)">a</text><text xml:space="preserve" font-family="Helvetica-Light,Helvetica" font-size="45.0" fill="#FEFFFF" transform="matrix(1.00, 0.00, -0.00, -1.00, 550.8, 703.8)">k</text><text xml:space="preserve" font-family="Helvetica-Light,Helvetica" font-size="45.0" fill="#FEFFFF" transform="matrix(1.00, 0.00, -0.00, -1.00, 573.3, 703.8)">e</text><text xml:space="preserve" font-family="Helvetica-Light,Helvetica" font-size="45.0" fill="#FEFFFF" transform="matrix(1.00, 0.00, -0.00, -1.00, 598.3, 703.8)">s</text><text xml:space="preserve" font-family="Helvetica-Light,Helvetica" font-size="45.0" fill="#FEFFFF" transform="matrix(1.00, 0.00, -0.00, -1.00, 620.8, 703.8)"> </text><text xml:space="preserve" font-family="Helvetica-Light,Helvetica" font-size="45.0" fill="#FEFFFF" transform="matrix(1.00, 0.00, -0.00, -1.00, 633.3, 703.8)">m</text><text xml:space="preserve" font-family="Helvetica-Light,Helvetica" font-size="45.0" fill="#FEFFFF" transform="matrix(1.00, 0.00, -0.00, -1.00, 670.8, 703.8)">e</text><text xml:space="preserve" font-family="Helvetica-Light,Helvetica" font-size="45.0" fill="#FEFFFF" transform="matrix(1.00, 0.00, -0.00, -1.00, 695.8, 703.8)"> </text><text xml:space="preserve" font-family="Helvetica-Light,Helvetica" font-size="45.0" fill="#FEFFFF" transform="matrix(1.00, 0.00, -0.00, -1.00, 708.3, 703.8)">f</text><text xml:space="preserve" font-family="Helvetica-Light,Helvetica" font-size="45.0" fill="#FEFFFF" transform="matrix(1.00, 0.00, -0.00, -1.00, 720.8, 703.8)">e</text><text xml:space="preserve" font-family="Helvetica-Light,Helvetica" font-size="45.0" fill="#FEFFFF" transform="matrix(1.00, 0.00, -0.00, -1.00, 745.8, 703.8)">e</text><text xml:space="preserve" font-family="Helvetica-Light,Helvetica" font-size="45.0" fill="#FEFFFF" transform="matrix(1.00, 0.00, -0.00, -1.00, 770.9, 703.8)">l</text><text xml:space="preserve" font-family="Helvetica-Light,Helvetica" font-size="45.0" fill="#FEFFFF" transform="matrix(1.00, 0.00, -0.00, -1.00, 780.9, 703.8)"> </text><text xml:space="preserve" font-family="Helvetica-Light,Helvetica" font-size="45.0" fill="#FEFFFF" transform="matrix(1.00, 0.00, -0.00, -1.00, 261.9, 649.8)">c</text><text xml:space="preserve" font-family="Helvetica-Light,Helvetica" font-size="45.0" fill="#FEFFFF" transform="matrix(1.00, 0.00, -0.00, -1.00, 286.9, 649.8)">l</text><text xml:space="preserve" font-family="Helvetica-Light,Helvetica" font-size="45.0" fill="#FEFFFF" transform="matrix(1.00, 0.00, -0.00, -1.00, 296.9, 649.8)">o</text><text xml:space="preserve" font-family="Helvetica-Light,Helvetica" font-size="45.0" fill="#FEFFFF" transform="matrix(1.00, 0.00, -0.00, -1.00, 321.9, 649.8)">s</text><text xml:space="preserve" font-family="Helvetica-Light,Helvetica" font-size="45.0" fill="#FEFFFF" transform="matrix(1.00, 0.00, -0.00, -1.00, 344.4, 649.8)">e</text><text xml:space="preserve" font-family="Helvetica-Light,Helvetica" font-size="45.0" fill="#FEFFFF" transform="matrix(1.00, 0.00, -0.00, -1.00, 369.5, 649.8)">r</text><text xml:space="preserve" font-family="Helvetica-Light,Helvetica" font-size="45.0" fill="#FEFFFF" transform="matrix(1.00, 0.00, -0.00, -1.00, 384.4, 649.8)"> </text><text xml:space="preserve" font-family="Helvetica-Light,Helvetica" font-size="45.0" fill="#FEFFFF" transform="matrix(1.00, 0.00, -0.00, -1.00, 397.0, 649.8)">t</text><text xml:space="preserve" font-family="Helvetica-Light,Helvetica" font-size="45.0" fill="#FEFFFF" transform="matrix(1.00, 0.00, -0.00, -1.00, 409.5, 649.8)">o</text><text xml:space="preserve" font-family="Helvetica-Light,Helvetica" font-size="45.0" fill="#FEFFFF" transform="matrix(1.00, 0.00, -0.00, -1.00, 434.5, 649.8)"> </text><text xml:space="preserve" font-family="Helvetica-Light,Helvetica" font-size="45.0" fill="#FEFFFF" transform="matrix(1.00, 0.00, -0.00, -1.00, 447.0, 649.8)">m</text><text xml:space="preserve" font-family="Helvetica-Light,Helvetica" font-size="45.0" fill="#FEFFFF" transform="matrix(1.00, 0.00, -0.00, -1.00, 484.5, 649.8)">y</text><text xml:space="preserve" font-family="Helvetica-Light,Helvetica" font-size="45.0" fill="#FEFFFF" transform="matrix(1.00, 0.00, -0.00, -1.00, 507.0, 649.8)"> </text><text xml:space="preserve" font-family="Helvetica-Light,Helvetica" font-size="45.0" fill="#FEFFFF" transform="matrix(1.00, 0.00, -0.00, -1.00, 519.5, 649.8)">l</text><text xml:space="preserve" font-family="Helvetica-Light,Helvetica" font-size="45.0" fill="#FEFFFF" transform="matrix(1.00, 0.00, -0.00, -1.00, 529.5, 649.8)">o</text><text xml:space="preserve" font-family="Helvetica-Light,Helvetica" font-size="45.0" fill="#FEFFFF" transform="matrix(1.00, 0.00, -0.00, -1.00, 554.5, 649.8)">v</text><text xml:space="preserve" font-family="Helvetica-Light,Helvetica" font-size="45.0" fill="#FEFFFF" transform="matrix(1.00, 0.00, -0.00, -1.00, 577.0, 649.8)">e</text><text xml:space="preserve" font-family="Helvetica-Light,Helvetica" font-size="45.0" fill="#FEFFFF" transform="matrix(1.00, 0.00, -0.00, -1.00, 602.0, 649.8)">d</text><text xml:space="preserve" font-family="Helvetica-Light,Helvetica" font-size="45.0" fill="#FEFFFF" transform="matrix(1.00, 0.00, -0.00, -1.00, 629.5, 649.8)"> </text><text xml:space="preserve" font-family="Helvetica-Light,Helvetica" font-size="45.0" fill="#FEFFFF" transform="matrix(1.00, 0.00, -0.00, -1.00, 642.0, 649.8)">o</text><text xml:space="preserve" font-family="Helvetica-Light,Helvetica" font-size="45.0" fill="#FEFFFF" transform="matrix(1.00, 0.00, -0.00, -1.00, 667.0, 649.8)">n</text><text xml:space="preserve" font-family="Helvetica-Light,Helvetica" font-size="45.0" fill="#FEFFFF" transform="matrix(1.00, 0.00, -0.00, -1.00, 692.1, 649.8)">e</text><text xml:space="preserve" font-family="Helvetica-Light,Helvetica" font-size="45.0" fill="#FEFFFF" transform="matrix(1.00, 0.00, -0.00, -1.00, 717.1, 649.8)">…</text><text xml:space="preserve" font-family="Helvetica-Light,Helvetica" font-size="30.0" fill="#FEFFFF" transform="matrix(1.00, 0.00, -0.00, -1.00, 210.4, 515.5)">T</text><text xml:space="preserve" font-family="Helvetica-Light,Helvetica" font-size="30.0" fill="#FEFFFF" transform="matrix(1.00, 0.00, -0.00, -1.00, 224.3, 515.5)">r</text><text xml:space="preserve" font-family="Helvetica-Light,Helvetica" font-size="30.0" fill="#FEFFFF" transform="matrix(1.00, 0.00, -0.00, -1.00, 234.3, 515.5)">i</text><text xml:space="preserve" font-family="Helvetica-Light,Helvetica" font-size="30.0" fill="#FEFFFF" transform="matrix(1.00, 0.00, -0.00, -1.00, 241.0, 515.5)">a</text><text xml:space="preserve" font-family="Helvetica-Light,Helvetica" font-size="30.0" fill="#FEFFFF" transform="matrix(1.00, 0.00, -0.00, -1.00, 257.7, 515.5)">l</text><text xml:space="preserve" font-family="Helvetica-Light,Helvetica" font-size="30.0" fill="#FEFFFF" transform="matrix(1.00, 0.00, -0.00, -1.00, 264.3, 515.5)"> </text><text xml:space="preserve" font-family="Helvetica-Light,Helvetica" font-size="30.0" fill="#FEFFFF" transform="matrix(1.00, 0.00, -0.00, -1.00, 272.7, 515.5)">1</text><text xml:space="preserve" font-family="Helvetica-Light,Helvetica" font-size="30.0" fill="#FEFFFF" transform="matrix(1.00, 0.00, -0.00, -1.00, 702.4, 515.5)">T</text><text xml:space="preserve" font-family="Helvetica-Light,Helvetica" font-size="30.0" fill="#FEFFFF" transform="matrix(1.00, 0.00, -0.00, -1.00, 716.3, 515.5)">r</text><text xml:space="preserve" font-family="Helvetica-Light,Helvetica" font-size="30.0" fill="#FEFFFF" transform="matrix(1.00, 0.00, -0.00, -1.00, 726.3, 515.5)">i</text><text xml:space="preserve" font-family="Helvetica-Light,Helvetica" font-size="30.0" fill="#FEFFFF" transform="matrix(1.00, 0.00, -0.00, -1.00, 733.0, 515.5)">a</text><text xml:space="preserve" font-family="Helvetica-Light,Helvetica" font-size="30.0" fill="#FEFFFF" transform="matrix(1.00, 0.00, -0.00, -1.00, 749.7, 515.5)">l</text><text xml:space="preserve" font-family="Helvetica-Light,Helvetica" font-size="30.0" fill="#FEFFFF" transform="matrix(1.00, 0.00, -0.00, -1.00, 756.3, 515.5)"> </text><text xml:space="preserve" font-family="Helvetica-Light,Helvetica" font-size="30.0" fill="#FEFFFF" transform="matrix(1.00, 0.00, -0.00, -1.00, 764.7, 515.5)">2</text><path d="M 166.0 476.0 L 221.0 476.0 L 221.0 420.0 L 166.0 420.0 Z M 166.1 475.5 " fill="#F38F18"></path><path d="M 110.0 476.0 L 164.0 476.0 L 164.0 420.0 L 110.0 420.0 Z M 109.6 475.5 " fill="#FFD300"></path><path d="M 223.0 476.0 L 277.0 476.0 L 277.0 420.0 L 223.0 420.0 Z M 222.6 475.5 " fill="#FF9300"></path><path d="M 279.0 476.0 L 334.0 476.0 L 334.0 420.0 L 279.0 420.0 Z M 279.1 475.5 " fill="#FF9300"></path><path d="M 336.0 476.0 L 390.0 476.0 L 390.0 420.0 L 336.0 420.0 Z M 335.6 475.5 " fill="#37D2A9"></path><path d="M 110.0 418.0 L 164.0 418.0 L 164.0 362.0 L 110.0 362.0 Z M 109.6 417.7 " fill="#37D2A9"></path><path d="M 166.0 418.0 L 221.0 418.0 L 221.0 362.0 L 166.0 362.0 Z M 166.1 417.7 " fill="#37D2A9"></path><path d="M 223.0 418.0 L 277.0 418.0 L 277.0 362.0 L 223.0 362.0 Z M 222.6 417.7 " fill="#37D2A9"></path><path d="M 279.0 418.0 L 334.0 418.0 L 334.0 362.0 L 279.0 362.0 Z M 279.1 417.7 " fill="#37D2A9"></path><path d="M 336.0 418.0 L 390.0 418.0 L 390.0 362.0 L 336.0 362.0 Z M 335.6 417.7 " fill="#37D2A9"></path><path d="M 110.0 360.0 L 164.0 360.0 L 164.0 304.0 L 110.0 304.0 Z M 109.6 359.9 " fill="#37D2A9"></path><path d="M 658.0 476.0 L 713.0 476.0 L 713.0 420.0 L 658.0 420.0 Z M 658.1 475.5 " fill="#FD9125"></path><path d="M 602.0 476.0 L 656.0 476.0 L 656.0 420.0 L 602.0 420.0 Z M 601.6 475.5 " fill="#FD9125"></path><path d="M 715.0 476.0 L 769.0 476.0 L 769.0 420.0 L 715.0 420.0 Z M 714.6 475.5 " fill="#FD9125"></path><path d="M 771.0 476.0 L 826.0 476.0 L 826.0 420.0 L 771.0 420.0 Z M 771.1 475.5 " fill="#41D2AA"></path><path d="M 828.0 476.0 L 882.0 476.0 L 882.0 420.0 L 828.0 420.0 Z M 827.6 475.5 " fill="#37D2A9"></path><path d="M 602.0 418.0 L 656.0 418.0 L 656.0 362.0 L 602.0 362.0 Z M 601.6 417.7 " fill="#37D2A9"></path><path d="M 658.0 418.0 L 713.0 418.0 L 713.0 362.0 L 658.0 362.0 Z M 658.1 417.7 " fill="#37D2A9"></path><path d="M 715.0 418.0 L 769.0 418.0 L 769.0 362.0 L 715.0 362.0 Z M 714.6 417.7 " fill="#37D2A9"></path><path d="M 771.0 418.0 L 826.0 418.0 L 826.0 362.0 L 771.0 362.0 Z M 771.1 417.7 " fill="#37D2A9"></path><path d="M 828.0 418.0 L 882.0 418.0 L 882.0 362.0 L 828.0 362.0 Z M 827.6 417.7 " fill="#007879"></path><path d="M 602.0 360.0 L 656.0 360.0 L 656.0 304.0 L 602.0 304.0 Z M 601.6 359.9 " fill="#007879"></path><path d="M 658.0 360.0 L 713.0 360.0 L 713.0 304.0 L 658.0 304.0 Z M 658.1 359.9 " fill="#007879"></path><path d="M 715.0 360.0 L 769.0 360.0 L 769.0 304.0 L 715.0 304.0 Z M 714.6 359.9 " fill="#007879"></path><path d="M 223.0 178.0 L 278.0 178.0 L 278.0 122.0 L 223.0 122.0 Z M 223.1 177.9 " fill="#FFD300"></path><text xml:space="preserve" font-family="Helvetica-Light,Helvetica" font-size="30.0" fill="#FEFFFF" transform="matrix(1.00, 0.00, -0.00, -1.00, 189.3, 69.9)">D</text><text xml:space="preserve" font-family="Helvetica-Light,Helvetica" font-size="30.0" fill="#FEFFFF" transform="matrix(1.00, 0.00, -0.00, -1.00, 211.0, 69.9)">i</text><text xml:space="preserve" font-family="Helvetica-Light,Helvetica" font-size="30.0" fill="#FEFFFF" transform="matrix(1.00, 0.00, -0.00, -1.00, 217.6, 69.9)">s</text><text xml:space="preserve" font-family="Helvetica-Light,Helvetica" font-size="30.0" fill="#FEFFFF" transform="matrix(1.00, 0.00, -0.00, -1.00, 232.6, 69.9)">a</text><text xml:space="preserve" font-family="Helvetica-Light,Helvetica" font-size="30.0" fill="#FEFFFF" transform="matrix(1.00, 0.00, -0.00, -1.00, 249.3, 69.9)">g</text><text xml:space="preserve" font-family="Helvetica-Light,Helvetica" font-size="30.0" fill="#FEFFFF" transform="matrix(1.00, 0.00, -0.00, -1.00, 267.6, 69.9)">r</text><text xml:space="preserve" font-family="Helvetica-Light,Helvetica" font-size="30.0" fill="#FEFFFF" transform="matrix(1.00, 0.00, -0.00, -1.00, 277.1, 69.9)">e</text><text xml:space="preserve" font-family="Helvetica-Light,Helvetica" font-size="30.0" fill="#FEFFFF" transform="matrix(1.00, 0.00, -0.00, -1.00, 293.8, 69.9)">e</text><path d="M 416.0 178.0 L 470.0 178.0 L 470.0 122.0 L 416.0 122.0 Z M 415.8 177.9 " fill="#FB9135"></path><text xml:space="preserve" font-family="Helvetica-Light,Helvetica" font-size="30.0" fill="#FEFFFF" transform="matrix(1.00, 0.00, -0.00, -1.00, 394.8, 69.9)">N</text><text xml:space="preserve" font-family="Helvetica-Light,Helvetica" font-size="30.0" fill="#FEFFFF" transform="matrix(1.00, 0.00, -0.00, -1.00, 416.4, 69.9)">e</text><text xml:space="preserve" font-family="Helvetica-Light,Helvetica" font-size="30.0" fill="#FEFFFF" transform="matrix(1.00, 0.00, -0.00, -1.00, 433.1, 69.9)">u</text><text xml:space="preserve" font-family="Helvetica-Light,Helvetica" font-size="30.0" fill="#FEFFFF" transform="matrix(1.00, 0.00, -0.00, -1.00, 449.8, 69.9)">t</text><text xml:space="preserve" font-family="Helvetica-Light,Helvetica" font-size="30.0" fill="#FEFFFF" transform="matrix(1.00, 0.00, -0.00, -1.00, 458.1, 69.9)">r</text><text xml:space="preserve" font-family="Helvetica-Light,Helvetica" font-size="30.0" fill="#FEFFFF" transform="matrix(1.00, 0.00, -0.00, -1.00, 468.1, 69.9)">a</text><text xml:space="preserve" font-family="Helvetica-Light,Helvetica" font-size="30.0" fill="#FEFFFF" transform="matrix(1.00, 0.00, -0.00, -1.00, 484.8, 69.9)">l</text><path d="M 589.0 178.0 L 643.0 178.0 L 643.0 122.0 L 589.0 122.0 Z M 588.8 177.9 " fill="#41D2AA"></path><text xml:space="preserve" font-family="Helvetica-Light,Helvetica" font-size="30.0" fill="#FEFFFF" transform="matrix(1.00, 0.00, -0.00, -1.00, 575.5, 69.9)">A</text><text xml:space="preserve" font-family="Helvetica-Light,Helvetica" font-size="30.0" fill="#FEFFFF" transform="matrix(1.00, 0.00, -0.00, -1.00, 595.5, 69.9)">g</text><text xml:space="preserve" font-family="Helvetica-Light,Helvetica" font-size="30.0" fill="#FEFFFF" transform="matrix(1.00, 0.00, -0.00, -1.00, 613.8, 69.9)">r</text><text xml:space="preserve" font-family="Helvetica-Light,Helvetica" font-size="30.0" fill="#FEFFFF" transform="matrix(1.00, 0.00, -0.00, -1.00, 623.3, 69.9)">e</text><text xml:space="preserve" font-family="Helvetica-Light,Helvetica" font-size="30.0" fill="#FEFFFF" transform="matrix(1.00, 0.00, -0.00, -1.00, 640.0, 69.9)">e</text><path d="M 762.0 181.0 L 816.0 181.0 L 816.0 126.0 L 762.0 126.0 Z M 761.8 181.2 " fill="#0F7878"></path><text xml:space="preserve" font-family="Helvetica-Light,Helvetica" font-size="30.0" fill="#FEFFFF" transform="matrix(1.00, 0.00, -0.00, -1.00, 734.3, 87.9)">S</text><text xml:space="preserve" font-family="Helvetica-Light,Helvetica" font-size="30.0" fill="#FEFFFF" transform="matrix(1.00, 0.00, -0.00, -1.00, 752.6, 87.9)">t</text><text xml:space="preserve" font-family="Helvetica-Light,Helvetica" font-size="30.0" fill="#FEFFFF" transform="matrix(1.00, 0.00, -0.00, -1.00, 761.0, 87.9)">r</text><text xml:space="preserve" font-family="Helvetica-Light,Helvetica" font-size="30.0" fill="#FEFFFF" transform="matrix(1.00, 0.00, -0.00, -1.00, 770.4, 87.9)">o</text><text xml:space="preserve" font-family="Helvetica-Light,Helvetica" font-size="30.0" fill="#FEFFFF" transform="matrix(1.00, 0.00, -0.00, -1.00, 787.1, 87.9)">n</text><text xml:space="preserve" font-family="Helvetica-Light,Helvetica" font-size="30.0" fill="#FEFFFF" transform="matrix(1.00, 0.00, -0.00, -1.00, 803.8, 87.9)">g</text><text xml:space="preserve" font-family="Helvetica-Light,Helvetica" font-size="30.0" fill="#FEFFFF" transform="matrix(1.00, 0.00, -0.00, -1.00, 822.1, 87.9)">l</text><text xml:space="preserve" font-family="Helvetica-Light,Helvetica" font-size="30.0" fill="#FEFFFF" transform="matrix(1.00, 0.00, -0.00, -1.00, 828.8, 87.9)">y</text><text xml:space="preserve" font-family="Helvetica-Light,Helvetica" font-size="30.0" fill="#FEFFFF" transform="matrix(1.00, 0.00, -0.00, -1.00, 843.8, 87.9)"> </text><text xml:space="preserve" font-family="Helvetica-Light,Helvetica" font-size="30.0" fill="#FEFFFF" transform="matrix(1.00, 0.00, -0.00, -1.00, 748.4, 51.9)">A</text><text xml:space="preserve" font-family="Helvetica-Light,Helvetica" font-size="30.0" fill="#FEFFFF" transform="matrix(1.00, 0.00, -0.00, -1.00, 768.5, 51.9)">g</text><text xml:space="preserve" font-family="Helvetica-Light,Helvetica" font-size="30.0" fill="#FEFFFF" transform="matrix(1.00, 0.00, -0.00, -1.00, 786.8, 51.9)">r</text><text xml:space="preserve" font-family="Helvetica-Light,Helvetica" font-size="30.0" fill="#FEFFFF" transform="matrix(1.00, 0.00, -0.00, -1.00, 796.2, 51.9)">e</text><text xml:space="preserve" font-family="Helvetica-Light,Helvetica" font-size="30.0" fill="#FEFFFF" transform="matrix(1.00, 0.00, -0.00, -1.00, 812.9, 51.9)">e</text></g></svg>