<?xml version="1.0" encoding="UTF-8" standalone="no"?><svg xmlns="http://www.w3.org/2000/svg" xmlns:xlink="http://www.w3.org/1999/xlink" clip-rule="evenodd" stroke-miterlimit="10" viewBox="0 0 1024 768"><desc>SVG generated by Keynote</desc><defs></defs><g transform="matrix(1.00, 0.00, -0.00, -1.00, 0.0, 768.0)"><path d="M 0.0 768.0 L 1024.0 768.0 L 1024.0 0.0 L 0.0 0.0 Z M 0.0 768.0 " fill="#009192"></path><text xml:space="preserve" font-family="Helvetica-Bold,Helvetica" font-weight="bold" font-size="50.0" fill="#FEFFFF" transform="matrix(1.00, 0.00, -0.00, -1.00, 462.0, 669.2)">M</text><text xml:space="preserve" font-family="Helvetica-Bold,Helvetica" font-weight="bold" font-size="50.0" fill="#FEFFFF" transform="matrix(1.00, 0.00, -0.00, -1.00, 503.7, 669.2)">a</text><text xml:space="preserve" font-family="Helvetica-Bold,Helvetica" font-weight="bold" font-size="50.0" fill="#FEFFFF" transform="matrix(1.00, 0.00, -0.00, -1.00, 531.5, 669.2)">p</text><image xlink:href="../../0D514665-CDB1-465B-B33A-53C7F200B478/assets/B9D7D8943C44BE8297A0C602D89CCC6E.png" width="1546.00" height="898.00" transform="matrix(0.70, 0.00, -0.00, -0.70, -29.2, 628.9)"></image><image xlink:href="../../0D514665-CDB1-465B-B33A-53C7F200B478/assets/226014755F89EE9F0EF0B56794533B07.png" width="22.00" height="22.00" transform="matrix(0.98, 0.00, -0.00, -0.99, 439.0, 282.0)" opacity="0.50"></image><g><clipPath id="clip0x6000062a9a80"><path d="M 455.3 278.7 C 458.3 275.6 458.3 270.7 455.3 267.6 C 452.2 264.6 447.3 264.6 444.3 267.6 C 441.2 270.7 441.2 275.6 444.3 278.7 C 447.3 281.8 452.2 281.8 455.3 278.7 Z M 455.3 278.7 "></path></clipPath><g clip-path="url(#clip0x6000062a9a80)"><image xlink:href="../../0D514665-CDB1-465B-B33A-53C7F200B478/assets/8571D34485008A2B4E76C6C919FEC199.png" width="600.00" height="600.00" transform="matrix(0.50, 0.00, -0.00, -0.50, 442.0, 281.0)"></image></g></g><image xlink:href="../../0D514665-CDB1-465B-B33A-53C7F200B478/assets/226014755F89EE9F0EF0B56794533B07.png" width="22.00" height="22.00" transform="matrix(0.98, 0.00, -0.00, -0.99, 769.0, 442.0)" opacity="0.50"></image><path d="M 785.3 438.7 C 788.3 435.6 788.3 430.7 785.3 427.6 C 782.2 424.6 777.3 424.6 774.3 427.6 C 771.2 430.7 771.2 435.6 774.3 438.7 C 777.3 441.8 782.2 441.8 785.3 438.7 Z M 785.3 438.7 " fill="#F38F18"></path><g opacity="0.95"><g><clipPath id="clip0x6000062a98a0"><path d="M 452.0 277.0 L 774.0 277.0 L 774.0 436.0 L 452.0 436.0 Z M 452.0 277.0 "></path></clipPath><g clip-path="url(#clip0x6000062a98a0)"><path d="M 317.7 0.1 C 181.3 -2.3 75.4 48.9 0.0 153.9 " fill="none" stroke="#3480AB" stroke-width="2.00" transform="matrix(1.00, 0.00, 0.00, -1.00, 454.3, 433.4)"></path></g></g></g><text xml:space="preserve" font-family="Helvetica-Light,Helvetica" font-size="40.0" fill="#317DAA" transform="matrix(1.00, 0.00, -0.00, -1.00, 578.8, 343.8)">9</text><text xml:space="preserve" font-family="Helvetica-Light,Helvetica" font-size="40.0" fill="#317DAA" transform="matrix(1.00, 0.00, -0.00, -1.00, 601.1, 343.8)">0</text><text xml:space="preserve" font-family="Helvetica-Light,Helvetica" font-size="40.0" fill="#317DAA" transform="matrix(1.00, 0.00, -0.00, -1.00, 623.3, 343.8)">0</text><text xml:space="preserve" font-family="Helvetica-Light,Helvetica" font-size="40.0" fill="#317DAA" transform="matrix(1.00, 0.00, -0.00, -1.00, 645.6, 343.8)">0</text><text xml:space="preserve" font-family="Helvetica-Light,Helvetica" font-size="40.0" fill="#317DAA" transform="matrix(1.00, 0.00, -0.00, -1.00, 667.8, 343.8)"> </text><text xml:space="preserve" font-family="Helvetica-Light,Helvetica" font-size="40.0" fill="#317DAA" transform="matrix(1.00, 0.00, -0.00, -1.00, 678.9, 343.8)">m</text><text xml:space="preserve" font-family="Helvetica-Light,Helvetica" font-size="40.0" fill="#317DAA" transform="matrix(1.00, 0.00, -0.00, -1.00, 712.2, 343.8)">i</text><text xml:space="preserve" font-family="Helvetica-Light,Helvetica" font-size="40.0" fill="#317DAA" transform="matrix(1.00, 0.00, -0.00, -1.00, 721.1, 343.8)">l</text><text xml:space="preserve" font-family="Helvetica-Light,Helvetica" font-size="40.0" fill="#317DAA" transform="matrix(1.00, 0.00, -0.00, -1.00, 730.0, 343.8)">e</text><text xml:space="preserve" font-family="Helvetica-Light,Helvetica" font-size="40.0" fill="#317DAA" transform="matrix(1.00, 0.00, -0.00, -1.00, 752.2, 343.8)">s</text></g></svg>