<?xml version="1.0" encoding="UTF-8" standalone="no"?><svg xmlns="http://www.w3.org/2000/svg" xmlns:xlink="http://www.w3.org/1999/xlink" clip-rule="evenodd" stroke-miterlimit="10" viewBox="0 0 219 34"><desc>SVG generated by Keynote</desc><defs></defs><g transform="matrix(1.00, 0.00, -0.00, -1.00, 0.0, 34.0)"><text xml:space="preserve" font-family="Helvetica-Light,Helvetica" font-size="40.0" fill="#FEFFFF" transform="matrix(1.00, 0.00, -0.00, -1.00, -0.9, 3.1)">N</text><text xml:space="preserve" font-family="Helvetica-Light,Helvetica" font-size="40.0" fill="#FEFFFF" transform="matrix(1.00, 0.00, -0.00, -1.00, 28.0, 3.1)">o</text><text xml:space="preserve" font-family="Helvetica-Light,Helvetica" font-size="40.0" fill="#FEFFFF" transform="matrix(1.00, 0.00, -0.00, -1.00, 50.2, 3.1)">t</text><text xml:space="preserve" font-family="Helvetica-Light,Helvetica" font-size="40.0" fill="#FEFFFF" transform="matrix(1.00, 0.00, -0.00, -1.00, 61.3, 3.1)">i</text><text xml:space="preserve" font-family="Helvetica-Light,Helvetica" font-size="40.0" fill="#FEFFFF" transform="matrix(1.00, 0.00, -0.00, -1.00, 70.2, 3.1)">ï¬</text><text xml:space="preserve" font-family="Helvetica-Light,Helvetica" font-size="40.0" fill="#FEFFFF" transform="matrix(1.00, 0.00, -0.00, -1.00, 90.2, 3.1)">c</text><text xml:space="preserve" font-family="Helvetica-Light,Helvetica" font-size="40.0" fill="#FEFFFF" transform="matrix(1.00, 0.00, -0.00, -1.00, 112.4, 3.1)">a</text><text xml:space="preserve" font-family="Helvetica-Light,Helvetica" font-size="40.0" fill="#FEFFFF" transform="matrix(1.00, 0.00, -0.00, -1.00, 134.7, 3.1)">t</text><text xml:space="preserve" font-family="Helvetica-Light,Helvetica" font-size="40.0" fill="#FEFFFF" transform="matrix(1.00, 0.00, -0.00, -1.00, 145.8, 3.1)">i</text><text xml:space="preserve" font-family="Helvetica-Light,Helvetica" font-size="40.0" fill="#FEFFFF" transform="matrix(1.00, 0.00, -0.00, -1.00, 154.7, 3.1)">o</text><text xml:space="preserve" font-family="Helvetica-Light,Helvetica" font-size="40.0" fill="#FEFFFF" transform="matrix(1.00, 0.00, -0.00, -1.00, 176.9, 3.1)">n</text><text xml:space="preserve" font-family="Helvetica-Light,Helvetica" font-size="40.0" fill="#FEFFFF" transform="matrix(1.00, 0.00, -0.00, -1.00, 199.2, 3.1)">s</text></g></svg>