<?xml version="1.0" encoding="UTF-8" standalone="no"?><svg xmlns="http://www.w3.org/2000/svg" xmlns:xlink="http://www.w3.org/1999/xlink" clip-rule="evenodd" stroke-miterlimit="10" viewBox="0 0 238 90"><desc>SVG generated by Keynote</desc><defs></defs><g transform="matrix(1.00, 0.00, -0.00, -1.00, 0.0, 90.0)"><text xml:space="preserve" font-family="Helvetica-Light,Helvetica" font-size="40.0" fill="#FEFFFF" transform="matrix(1.00, 0.00, -0.00, -1.00, 0.7, 59.0)">C</text><text xml:space="preserve" font-family="Helvetica-Light,Helvetica" font-size="40.0" fill="#FEFFFF" transform="matrix(1.00, 0.00, -0.00, -1.00, 29.6, 59.0)">o</text><text xml:space="preserve" font-family="Helvetica-Light,Helvetica" font-size="40.0" fill="#FEFFFF" transform="matrix(1.00, 0.00, -0.00, -1.00, 51.8, 59.0)">l</text><text xml:space="preserve" font-family="Helvetica-Light,Helvetica" font-size="40.0" fill="#FEFFFF" transform="matrix(1.00, 0.00, -0.00, -1.00, 60.7, 59.0)">l</text><text xml:space="preserve" font-family="Helvetica-Light,Helvetica" font-size="40.0" fill="#FEFFFF" transform="matrix(1.00, 0.00, -0.00, -1.00, 69.6, 59.0)">a</text><text xml:space="preserve" font-family="Helvetica-Light,Helvetica" font-size="40.0" fill="#FEFFFF" transform="matrix(1.00, 0.00, -0.00, -1.00, 91.8, 59.0)">b</text><text xml:space="preserve" font-family="Helvetica-Light,Helvetica" font-size="40.0" fill="#FEFFFF" transform="matrix(1.00, 0.00, -0.00, -1.00, 116.2, 59.0)">o</text><text xml:space="preserve" font-family="Helvetica-Light,Helvetica" font-size="40.0" fill="#FEFFFF" transform="matrix(1.00, 0.00, -0.00, -1.00, 138.5, 59.0)">r</text><text xml:space="preserve" font-family="Helvetica-Light,Helvetica" font-size="40.0" fill="#FEFFFF" transform="matrix(1.00, 0.00, -0.00, -1.00, 151.8, 59.0)">a</text><text xml:space="preserve" font-family="Helvetica-Light,Helvetica" font-size="40.0" fill="#FEFFFF" transform="matrix(1.00, 0.00, -0.00, -1.00, 174.0, 59.0)">t</text><text xml:space="preserve" font-family="Helvetica-Light,Helvetica" font-size="40.0" fill="#FEFFFF" transform="matrix(1.00, 0.00, -0.00, -1.00, 185.2, 59.0)">i</text><text xml:space="preserve" font-family="Helvetica-Light,Helvetica" font-size="40.0" fill="#FEFFFF" transform="matrix(1.00, 0.00, -0.00, -1.00, 194.0, 59.0)">v</text><text xml:space="preserve" font-family="Helvetica-Light,Helvetica" font-size="40.0" fill="#FEFFFF" transform="matrix(1.00, 0.00, -0.00, -1.00, 214.0, 59.0)">e</text><text xml:space="preserve" font-family="Helvetica-Light,Helvetica" font-size="40.0" fill="#FEFFFF" transform="matrix(1.00, 0.00, -0.00, -1.00, 236.3, 59.0)"> </text><text xml:space="preserve" font-family="Helvetica-Light,Helvetica" font-size="40.0" fill="#FEFFFF" transform="matrix(1.00, 0.00, -0.00, -1.00, 47.4, 11.0)">G</text><text xml:space="preserve" font-family="Helvetica-Light,Helvetica" font-size="40.0" fill="#FEFFFF" transform="matrix(1.00, 0.00, -0.00, -1.00, 78.5, 11.0)">a</text><text xml:space="preserve" font-family="Helvetica-Light,Helvetica" font-size="40.0" fill="#FEFFFF" transform="matrix(1.00, 0.00, -0.00, -1.00, 100.7, 11.0)">m</text><text xml:space="preserve" font-family="Helvetica-Light,Helvetica" font-size="40.0" fill="#FEFFFF" transform="matrix(1.00, 0.00, -0.00, -1.00, 134.0, 11.0)">i</text><text xml:space="preserve" font-family="Helvetica-Light,Helvetica" font-size="40.0" fill="#FEFFFF" transform="matrix(1.00, 0.00, -0.00, -1.00, 142.9, 11.0)">n</text><text xml:space="preserve" font-family="Helvetica-Light,Helvetica" font-size="40.0" fill="#FEFFFF" transform="matrix(1.00, 0.00, -0.00, -1.00, 165.2, 11.0)">g</text></g></svg>